<?xml version="1.0"?><svg width="800" height="933.3333333333333" xmlns="http://www.w3.org/2000/svg">

 <g>
  <title>Layer 1</title>
  <g transform="rotate(179.71 411.82 432.11)" id="g1546">
   <path fill="#808080" fill-rule="evenodd" stroke="#808080" stroke-width="37.5" stroke-linejoin="round" stroke-miterlimit="4" id="path1545" d="m331.941498,813.535522c2.550568,-73.662598 -43.230072,-144.975281 -62.12735,-176.174133c-35.677612,-58.902649 -94.850433,-119.214233 -137.500015,-175.000031c-9.59597,-12.551575 -14.786102,-49.15097 3.75,-68.75c18.608765,-19.675873 47.525604,-18.970886 65,-8.75c48.775604,28.529114 65.847427,50.928284 99.999985,97.5c11.680756,15.928284 34.943634,62.726105 35,98.750031l0,-408.750031c0,-36.528702 34.400879,-62.203751 70,-60c35.599121,2.203766 64.768646,33.137787 65,61.25l2.5,303.75c-1.09964,-71.731842 6.286011,-115.568298 39.267792,-115.669434c32.967224,-0.101074 46.789001,48.063202 48.232239,118.169434c-1.443237,-73.022888 9.455933,-93.690338 43.964478,-94.267792c34.508484,-0.577423 44.015503,46.85672 44.785522,139.267822c0.063354,-72.827759 17.524475,-104.22522 33.75,-105.000031c16.225525,-0.774841 56.873474,32.177277 57.13385,106.605316l0.366089,104.644714c0.112,32.014343 -46.567993,56.550354 -46.843567,88.598328l-0.808044,93.977478"/>
   <path fill="#ffffff" fill-rule="evenodd" stroke="#000000" stroke-width="37.5" stroke-linejoin="round" stroke-miterlimit="4" id="path1544" d="m296.87738,753.910767c2.550537,-73.662659 -43.230072,-144.975342 -62.12738,-176.174194c-35.677597,-58.902649 -94.850403,-119.214233 -137.5,-175.000031c-9.595963,-12.551544 -14.786087,-49.15097 3.75,-68.75c18.608757,-19.675873 47.525604,-18.970886 65,-8.75c48.775604,28.529114 65.847412,50.928284 100,97.5c11.680725,15.928284 34.943604,62.726074 35,98.750031l0,-408.750015c0,-36.528702 34.400879,-62.203758 70,-60.000008c35.599121,2.203762 64.768616,33.137794 65,61.250008l2.5,303.749985c-1.09964,-71.731842 6.28598,-115.568268 39.267761,-115.669434c32.967224,-0.101074 46.789001,48.063202 48.232239,118.169434c-1.443237,-73.022888 9.455994,-93.690338 43.964478,-94.267761c34.508484,-0.577454 44.015503,46.856689 44.785522,139.267761c0.063354,-72.827728 17.524475,-104.225189 33.75,-105c16.225525,-0.774811 56.873474,32.177277 57.13385,106.605347l0.36615,104.644684c0.112,32.014343 -46.568054,56.550354 -46.843567,88.598328l-0.808105,93.977478"/>
  </g>
 </g>
</svg>